<?xml version="1.0" encoding="UTF-8"?>
<svg id="Logos" xmlns="http://www.w3.org/2000/svg" viewBox="0 0 1028 1028">
  <defs>
    <style>
      .cls-1 {
        fill: #fff;
      }
    </style>
  </defs>
  <path class="cls-1" d="m684.57,438.84h-43.53c-15.07,0-29.46,5.82-40.66,15.9-7.59,6.83-17.83,17.4-29.48,17.53-1.99.02-5.91.09-10.1-2.55-.08-.05-.18-.12-.28-.19-3.12-2.26-4.48-6.24-3.6-9.98l8.46-36.41c1.59-6.77-3.09-10.93-9.8-12.77h0c-6.71-1.84-13.04-.72-15.13,5.92l-14.19,45.23h-24.52l-14.19-45.23c-2.09-6.64-8.42-7.76-15.13-5.92h0c-6.71,1.84-11.4,6-9.8,12.77l8.46,36.41c.88,3.75-.48,7.72-3.6,9.98-.11.08-.2.14-.28.19-4.19,2.65-8.12,2.57-10.1,2.55-11.65-.13-21.89-10.7-29.48-17.53-11.2-10.09-25.59-15.9-40.66-15.9h-43.53c-5.69,0-8.08,3.95-5.45,8.99l11.17,25.84c10.3,19.68,30.65,32.06,52.87,32.15l42.15.17c3.16,0,5.36,3.12,4.31,6.1l-28.69,93.74c-2.11,5.95-1.71,12.49,1.1,18.14l35.3,62.55c3.22,5.71,5.61,11.87,6.8,18.31.73,3.97,1.06,7.87.71,11.4-1.98,20.38-10.16,32-9.62,43.28.3,6.33,9.9,20.65,19.05,31.66,11.58,13.92,25.58,25.8,33.23,27.91.91.25,3.69.99,7.65.99s6.74-.74,7.65-.99c7.65-2.11,21.66-13.99,33.23-27.91,9.15-11.01,18.75-25.33,19.05-31.66.53-11.27-7.64-22.9-9.62-43.28-.34-3.54-.02-7.44.71-11.4,1.19-6.44,3.58-12.6,6.8-18.31l35.3-62.55c2.81-5.65,3.21-12.2,1.1-18.14l-28.69-93.74c-1.05-2.97,1.15-6.1,4.31-6.1l42.15-.17c22.22-.09,42.56-12.46,52.87-32.15l11.17-25.84c2.64-5.04.24-8.99-5.45-8.99Zm-225.43,178.27c-6.55-4.6-9.35-18.47-5.14-27.94h0l35.34,29.27c-10.07,3.95-23.27,3.53-30.2-1.33Zm24.45,138.05c-6.92-12.03-5.88-22.45-5.88-22.45,0,0,9.52,4.34,16.44,16.37,6.92,12.03,6.88,24.18,6.88,24.18,0,0-10.52-6.08-17.44-18.11Zm60.81,0c-6.92,12.03-17.44,18.11-17.44,18.11,0,0-.04-12.15,6.88-24.18,6.92-12.03,16.44-16.37,16.44-16.37,0,0,1.04,10.41-5.88,22.45Zm24.45-138.05c-6.93,4.86-20.13,5.28-30.2,1.33l35.34-29.27h0c4.21,9.46,1.41,23.34-5.14,27.94Z"/>
  <g>
    <g>
      <path class="cls-1" d="m217.63,331.55h2.46v23.3h-2.46v-23.3Z"/>
      <path class="cls-1" d="m286.33,353.52c-1.85-1.02-3.31-2.44-4.36-4.24-1.06-1.81-1.58-3.83-1.58-6.08s.53-4.27,1.58-6.08c1.05-1.81,2.51-3.22,4.38-4.25,1.86-1.02,3.95-1.53,6.26-1.53,1.73,0,3.33.29,4.79.86,1.46.58,2.71,1.42,3.73,2.53l-1.56,1.56c-1.82-1.84-4.12-2.76-6.89-2.76-1.84,0-3.52.42-5.03,1.27-1.51.84-2.69,2-3.55,3.46-.85,1.46-1.28,3.11-1.28,4.93s.43,3.46,1.28,4.93c.85,1.46,2.04,2.62,3.55,3.46,1.51.84,3.18,1.26,5.03,1.26,2.8,0,5.09-.93,6.89-2.8l1.56,1.56c-1.02,1.11-2.27,1.96-3.75,2.55-1.48.59-3.08.88-4.81.88-2.31,0-4.39-.51-6.24-1.53Z"/>
      <path class="cls-1" d="m316.12,353.51c-1.88-1.03-3.34-2.45-4.39-4.24-1.06-1.8-1.58-3.82-1.58-6.06s.53-4.26,1.58-6.06c1.05-1.8,2.52-3.21,4.39-4.24,1.87-1.03,3.97-1.55,6.27-1.55s4.39.51,6.24,1.53c1.85,1.02,3.31,2.44,4.38,4.25,1.06,1.81,1.6,3.83,1.6,6.08s-.53,4.27-1.6,6.08c-1.07,1.81-2.52,3.22-4.38,4.24-1.85,1.02-3.93,1.53-6.24,1.53s-4.4-.52-6.27-1.55Zm11.27-1.9c1.49-.83,2.65-1.99,3.5-3.46.84-1.48,1.26-3.12,1.26-4.94s-.42-3.47-1.26-4.94c-.84-1.48-2.01-2.63-3.5-3.46-1.49-.83-3.15-1.25-4.99-1.25s-3.51.42-5.01,1.25c-1.5.83-2.68,1.99-3.53,3.46-.85,1.48-1.28,3.12-1.28,4.94s.43,3.47,1.28,4.94c.85,1.48,2.03,2.63,3.53,3.46,1.5.83,3.17,1.25,5.01,1.25s3.51-.42,4.99-1.25Z"/>
      <path class="cls-1" d="m384.38,333.68h-8.19v-2.13h18.84v2.13h-8.19v21.17h-2.46v-21.17Z"/>
      <path class="cls-1" d="m405.29,331.55h2.46v23.3h-2.46v-23.3Z"/>
      <path class="cls-1" d="m457.39,352.46c-1.69-1.73-2.53-4.25-2.53-7.56v-13.35h2.46v13.25c0,2.71.61,4.73,1.83,6.06,1.22,1.33,2.98,2,5.29,2s4.11-.67,5.33-2c1.22-1.33,1.83-3.35,1.83-6.06v-13.25h2.4v13.35c0,3.31-.84,5.83-2.51,7.56-1.68,1.73-4.02,2.6-7.04,2.6s-5.37-.87-7.06-2.6Z"/>
      <path class="cls-1" d="m491.66,353.51c-1.88-1.03-3.34-2.45-4.39-4.24-1.05-1.8-1.58-3.82-1.58-6.06s.53-4.26,1.58-6.06c1.05-1.8,2.52-3.21,4.39-4.24,1.87-1.03,3.97-1.55,6.28-1.55s4.39.51,6.24,1.53c1.85,1.02,3.31,2.44,4.38,4.25,1.07,1.81,1.6,3.83,1.6,6.08s-.53,4.27-1.6,6.08c-1.06,1.81-2.52,3.22-4.38,4.24-1.85,1.02-3.93,1.53-6.24,1.53s-4.4-.52-6.28-1.55Zm11.27-1.9c1.49-.83,2.65-1.99,3.49-3.46.84-1.48,1.27-3.12,1.27-4.94s-.42-3.47-1.27-4.94c-.84-1.48-2.01-2.63-3.49-3.46-1.49-.83-3.15-1.25-4.99-1.25s-3.51.42-5.01,1.25c-1.5.83-2.67,1.99-3.53,3.46-.85,1.48-1.28,3.12-1.28,4.94s.43,3.47,1.28,4.94c.85,1.48,2.03,2.63,3.53,3.46,1.5.83,3.17,1.25,5.01,1.25s3.51-.42,4.99-1.25Z"/>
      <path class="cls-1" d="m524.34,352.46c-1.69-1.73-2.53-4.25-2.53-7.56v-13.35h2.46v13.25c0,2.71.61,4.73,1.83,6.06,1.22,1.33,2.98,2,5.29,2s4.11-.67,5.33-2c1.22-1.33,1.83-3.35,1.83-6.06v-13.25h2.4v13.35c0,3.31-.84,5.83-2.51,7.56-1.68,1.73-4.02,2.6-7.04,2.6s-5.37-.87-7.06-2.6Z"/>
      <path class="cls-1" d="m556.15,354.22c-1.59-.56-2.81-1.29-3.68-2.2l.97-1.9c.84.84,1.96,1.53,3.36,2.05,1.4.52,2.84.78,4.33.78,2.09,0,3.65-.38,4.69-1.15,1.04-.77,1.56-1.76,1.56-2.98,0-.93-.28-1.67-.85-2.23-.57-.55-1.26-.98-2.08-1.28s-1.96-.63-3.43-.98c-1.75-.44-3.15-.87-4.19-1.28-1.04-.41-1.94-1.04-2.68-1.88-.74-.84-1.11-1.99-1.11-3.43,0-1.18.31-2.25.93-3.21.62-.97,1.58-1.74,2.86-2.31,1.29-.58,2.88-.86,4.79-.86,1.33,0,2.64.18,3.91.55,1.28.37,2.38.87,3.31,1.51l-.83,1.96c-.98-.64-2.02-1.13-3.13-1.45-1.11-.32-2.2-.48-3.26-.48-2.04,0-3.58.39-4.61,1.18-1.03.79-1.55,1.8-1.55,3.05,0,.93.28,1.68.85,2.25.57.57,1.28,1,2.13,1.3.85.3,2,.63,3.45.98,1.71.42,3.09.84,4.14,1.25,1.05.41,1.95,1.03,2.68,1.86.73.83,1.1,1.96,1.1,3.38,0,1.18-.32,2.25-.95,3.21-.63.97-1.6,1.73-2.91,2.3-1.31.57-2.92.85-4.83.85-1.73,0-3.39-.28-4.98-.83Z"/>
      <path class="cls-1" d="m600.42,353.52c-1.85-1.02-3.31-2.44-4.36-4.24-1.05-1.81-1.58-3.83-1.58-6.08s.53-4.27,1.58-6.08c1.05-1.81,2.51-3.22,4.38-4.25,1.87-1.02,3.95-1.53,6.26-1.53,1.73,0,3.33.29,4.79.86,1.46.58,2.71,1.42,3.73,2.53l-1.56,1.56c-1.82-1.84-4.12-2.76-6.89-2.76-1.84,0-3.52.42-5.03,1.27-1.51.84-2.69,2-3.55,3.46-.85,1.46-1.28,3.11-1.28,4.93s.43,3.46,1.28,4.93c.85,1.46,2.04,2.62,3.55,3.46,1.51.84,3.18,1.26,5.03,1.26,2.8,0,5.09-.93,6.89-2.8l1.56,1.56c-1.02,1.11-2.27,1.96-3.74,2.55-1.48.59-3.08.88-4.81.88-2.31,0-4.39-.51-6.24-1.53Z"/>
      <path class="cls-1" d="m719.35,333.68h-8.19v-2.13h18.84v2.13h-8.19v21.17h-2.46v-21.17Z"/>
      <path class="cls-1" d="m740.26,331.55h2.46v23.3h-2.46v-23.3Z"/>
      <path class="cls-1" d="m760.55,353.51c-1.88-1.03-3.34-2.45-4.39-4.24-1.06-1.8-1.58-3.82-1.58-6.06s.53-4.26,1.58-6.06c1.05-1.8,2.52-3.21,4.39-4.24,1.87-1.03,3.97-1.55,6.27-1.55s4.39.51,6.24,1.53c1.85,1.02,3.31,2.44,4.38,4.25,1.06,1.81,1.6,3.83,1.6,6.08s-.53,4.27-1.6,6.08c-1.07,1.81-2.52,3.22-4.38,4.24-1.85,1.02-3.93,1.53-6.24,1.53s-4.4-.52-6.27-1.55Zm11.27-1.9c1.49-.83,2.65-1.99,3.5-3.46.84-1.48,1.26-3.12,1.26-4.94s-.42-3.47-1.26-4.94c-.84-1.48-2.01-2.63-3.5-3.46-1.49-.83-3.15-1.25-4.99-1.25s-3.51.42-5.01,1.25c-1.5.83-2.68,1.99-3.53,3.46-.85,1.48-1.28,3.12-1.28,4.94s.43,3.47,1.28,4.94c.85,1.48,2.03,2.63,3.53,3.46,1.5.83,3.17,1.25,5.01,1.25s3.51-.42,4.99-1.25Z"/>
    </g>
    <polygon class="cls-1" points="695.15 331.55 692.72 331.55 682.07 354.85 684.63 354.85 687.43 348.63 688.32 346.63 693.92 334.11 699.51 346.63 700.41 348.63 703.2 354.85 705.8 354.85 695.15 331.55"/>
    <polygon class="cls-1" points="659.66 346.63 659.66 344.07 659.66 341.97 659.66 340.37 659.66 333.68 673.18 333.68 673.18 331.55 657.2 331.55 657.2 354.85 673.68 354.85 673.68 352.72 659.66 352.72 659.66 346.63"/>
    <path class="cls-1" d="m639.72,346.87c1.71-.56,3.02-1.46,3.94-2.71.92-1.25,1.38-2.79,1.38-4.61,0-2.49-.84-4.44-2.53-5.86-1.69-1.42-4.02-2.13-6.99-2.13h-8.72v23.3h2.46v-21.17h6.19c2.31,0,4.07.51,5.29,1.51,1.22,1.01,1.83,2.46,1.83,4.35s-.61,3.27-1.83,4.29c-1.22,1.02-2.99,1.53-5.29,1.53h-.99v2.1h1.06c.64,0,1.26-.03,1.86-.1l5.33,7.49h2.7l-5.69-7.99Z"/>
    <g>
      <polygon class="cls-1" points="348.93 332.1 348.5 331.55 346.47 331.55 346.47 354.85 348.93 354.85 348.93 332.1"/>
      <polygon class="cls-1" points="363.51 331.55 363.51 350.46 352.1 336.09 352.1 339.95 363.91 354.85 365.94 354.85 365.94 331.55 363.51 331.55"/>
    </g>
    <g>
      <polygon class="cls-1" points="424.13 332.1 423.7 331.55 421.67 331.55 421.67 354.85 424.13 354.85 424.13 332.1"/>
      <polygon class="cls-1" points="438.71 331.55 438.71 350.46 427.3 336.09 427.3 339.95 439.11 354.85 441.14 354.85 441.14 331.55 438.71 331.55"/>
    </g>
    <g>
      <polygon class="cls-1" points="236.42 341.52 236.42 332.03 236.04 331.55 234.01 331.55 234.01 354.85 236.47 354.85 236.47 341.52 236.42 341.52"/>
      <polygon class="cls-1" points="251.06 331.55 251.06 350.46 239.59 336.02 239.59 339.88 251.46 354.85 253.49 354.85 253.49 331.55 251.06 331.55"/>
    </g>
    <g>
      <polygon class="cls-1" points="793.39 332.14 792.92 331.55 790.89 331.55 790.89 354.85 793.36 354.85 793.36 335.95 793.39 335.99 793.39 332.14"/>
      <polygon class="cls-1" points="807.94 331.55 807.94 350.46 796.56 336.13 796.56 339.99 808.34 354.85 810.37 354.85 810.37 331.55 807.94 331.55"/>
    </g>
  </g>
  <g>
    <g>
      <path class="cls-1" d="m212.04,244.8v33.45c0,11.64-6.34,17.45-20.79,17.45h-61.55c-14.46,0-21.68-5.88-21.68-17.63v-52.6c0-11.7,7.26-17.54,21.77-17.54h80.36v15.33h-81.25c-2.76,0-4.14,1.17-4.14,3.51v50.02c0,2.4,1.38,3.6,4.13,3.6h62.36c2.7,0,4.04-1.14,4.04-3.42v-22.35l16.74-9.81Z"/>
      <path class="cls-1" d="m222.82,207.92h16.74v87.78h-16.74v-87.78Z"/>
      <path class="cls-1" d="m798.81,207.92h16.74v87.78h-16.74v-87.78Z"/>
      <path class="cls-1" d="m663.07,207.92h-81.13v87.78h16.74v-72.35h64.4c2.69,0,4.04.87,4.04,2.61v19.53c0,1.74-1.35,2.61-4.04,2.61h-38.66l-10.98,15.33h49.66c14.44,0,20.77-5.85,20.77-17.54v-20.42c0-11.7-6.34-17.54-20.79-17.54Z"/>
      <polygon class="cls-1" points="770.49 207.92 770.49 244.54 708.21 244.54 708.11 207.92 691.43 207.92 691.43 295.7 708.11 295.7 708.21 259.87 770.49 259.87 770.49 295.7 787.23 295.7 787.23 207.92 770.49 207.92"/>
      <path class="cls-1" d="m843.87,276.78v-50.02c0-2.34,1.35-3.51,4.05-3.51h61.57l10.5-15.33h-72.07c-14.46,0-20.79,5.85-20.79,17.54v52.6c0,11.76,6.33,17.63,20.79,17.63h71.17v-15.33h-71.17c-2.7,0-4.05-1.2-4.05-3.6Z"/>
      <path class="cls-1" d="m539.79,214.13c-1.75-3.78-5.53-6.21-9.7-6.21h-19.09c-4.16,0-7.94,2.41-9.69,6.18l-29.99,64.38h0s12.14,16.95,12.14,16.95l.19.27.12-.27,8.6-21.33h55.6l9.24,21.59h0s9.89.01,9.89.01h10.35l-37.66-81.57Zm-1.7,44.64h-38.75l11.05-26.07,3.02-6.46h0c.49-.96,1.49-1.59,2.6-1.59h8.87c1.2,0,2.27.73,2.71,1.84h0s13.81,32.28,13.81,32.28h-3.32Z"/>
    </g>
    <path class="cls-1" d="m357.67,244.11v-18.64c0-11.7-6.93-17.55-20.78-17.55h-85.75v87.78h16.74v-72.45h69.01c2.69,0,4.04.94,4.04,2.81v19.37c0,1.93-1.17,2.9-3.51,2.9h-53.41l10.18,14.21h17.08l23.76,33.16h-.11,19.79l-23.88-33.33h6.05c13.85,0,20.78-6.09,20.78-18.27Z"/>
    <path class="cls-1" d="m471.75,244.11v-18.64c0-11.7-6.93-17.55-20.78-17.55h-85.75v87.78h16.74v-72.45h69.01c2.69,0,4.04.94,4.04,2.81v19.37c0,1.93-1.17,2.9-3.51,2.9h-53.41l10.18,14.21h17.08l23.76,33.16h-.12,19.79l-23.88-33.33h6.05c13.85,0,20.78-6.09,20.78-18.27Z"/>
  </g>
</svg>